<svg width="168" height="44" viewBox="0 0 168 44" fill="none" xmlns="http://www.w3.org/2000/svg">
<path fill-rule="evenodd" clip-rule="evenodd" d="M17.3724 3.98806H2.34537C1.79588 3.98806 1.35042 4.43351 1.35042 4.98301V20.0101C1.35042 20.5596 1.79588 21.005 2.34538 21.005H17.3724C17.9219 21.005 18.3674 20.5596 18.3674 20.0101V4.98301C18.3674 4.43351 17.9219 3.98806 17.3724 3.98806ZM2.34537 2.9931C1.24638 2.9931 0.355469 3.88402 0.355469 4.98301V20.0101C0.355469 21.1091 1.24638 22 2.34538 22H17.3724C18.4714 22 19.3623 21.1091 19.3623 20.0101V4.98301C19.3623 3.88401 18.4714 2.9931 17.3724 2.9931H2.34537Z" fill="#267DCC"/>
<path d="M0.355469 23.9898C0.355469 22.8909 1.24638 21.9999 2.34537 21.9999H17.3724C18.4714 21.9999 19.3623 22.8909 19.3623 23.9898V39.0169C19.3623 40.1159 18.4714 41.0068 17.3724 41.0068H2.34538C1.24638 41.0068 0.355469 40.1159 0.355469 39.0169V23.9898Z" fill="#267DCC"/>
<path d="M19.3623 4.98301C19.3623 3.88402 20.2532 2.9931 21.3522 2.9931H36.3793C37.4783 2.9931 38.3692 3.88401 38.3692 4.98301V20.0101C38.3692 21.1091 37.4783 22 36.3793 22H21.3522C20.2532 22 19.3623 21.1091 19.3623 20.0101V4.98301Z" fill="#267DCC"/>
<path fill-rule="evenodd" clip-rule="evenodd" d="M36.3793 22.9949H21.3522C20.8027 22.9949 20.3573 23.4403 20.3573 23.9898V39.0169C20.3573 39.5664 20.8027 40.0119 21.3522 40.0119H36.3793C36.9288 40.0119 37.3742 39.5664 37.3742 39.0169V23.9898C37.3742 23.4403 36.9288 22.9949 36.3793 22.9949ZM21.3522 21.9999C20.2532 21.9999 19.3623 22.8909 19.3623 23.9898V39.0169C19.3623 40.1159 20.2532 41.0068 21.3522 41.0068H36.3793C37.4783 41.0068 38.3692 40.1159 38.3692 39.0169V23.9898C38.3692 22.8909 37.4783 21.9999 36.3793 21.9999H21.3522Z" fill="#267DCC"/>
<path d="M47.301 19V3.98219H50.5713V16.0954H56.2945V19H47.301ZM65.1027 17.1066H64.9951C64.8947 17.3935 64.7584 17.666 64.5863 17.9242C64.4285 18.1824 64.2206 18.4119 63.9624 18.6127C63.7042 18.8135 63.3958 18.9713 63.0372 19.0861C62.693 19.2008 62.2913 19.2582 61.8323 19.2582C60.6705 19.2582 59.7884 18.8781 59.1859 18.1179C58.5978 17.3433 58.3038 16.2388 58.3038 14.8045V7.70437H61.4881V14.5248C61.4881 15.2133 61.61 15.744 61.8539 16.1169C62.0977 16.4899 62.5137 16.6763 63.1018 16.6763C63.3456 16.6763 63.5894 16.6405 63.8333 16.5687C64.0771 16.497 64.2923 16.3966 64.4787 16.2675C64.6652 16.1241 64.8158 15.952 64.9306 15.7512C65.0453 15.5503 65.1027 15.3137 65.1027 15.0411V7.70437H68.287V19H65.1027V17.1066ZM71.2497 3.07853H74.434V12.4808H74.5631L75.9616 10.3938L78.2208 7.70437H81.7493L77.9841 12.029L82.1796 19H78.3929L75.8541 14.2236L74.434 15.8157V19H71.2497V3.07853ZM83.6674 19V7.70437H86.8517V9.61924H86.9808C87.1816 9.01681 87.5258 8.50761 88.0135 8.09164C88.5012 7.66133 89.1682 7.44618 90.0144 7.44618C90.789 7.44618 91.4488 7.63982 91.9939 8.0271C92.5389 8.41438 92.9334 8.98095 93.1772 9.72682H93.2418C93.3422 9.41126 93.4928 9.11722 93.6936 8.84469C93.9087 8.55781 94.1669 8.31397 94.4682 8.11316C94.7694 7.91235 95.1064 7.75457 95.4794 7.63982C95.8523 7.51073 96.2539 7.44618 96.6842 7.44618C97.7744 7.44618 98.6063 7.83346 99.18 8.60802C99.7681 9.38257 100.062 10.487 100.062 11.9214V19H96.8779V12.1796C96.8779 10.7452 96.3615 10.028 95.3288 10.028C94.8554 10.028 94.4251 10.1643 94.0378 10.4368C93.6506 10.7094 93.4569 11.1253 93.4569 11.6847V19H90.2726V12.1796C90.2726 10.7452 89.7563 10.028 88.7235 10.028C88.494 10.028 88.2645 10.0639 88.035 10.1356C87.8199 10.193 87.6191 10.2934 87.4326 10.4368C87.2605 10.5803 87.117 10.7596 87.0023 10.9747C86.9019 11.1755 86.8517 11.4122 86.8517 11.6847V19H83.6674ZM107.475 19.2582C106.644 19.2582 105.898 19.1219 105.238 18.8494C104.592 18.5769 104.04 18.1824 103.581 17.666C103.136 17.1497 102.792 16.5257 102.548 15.7942C102.305 15.0627 102.183 14.2451 102.183 13.3414C102.183 12.4378 102.305 11.6202 102.548 10.8887C102.792 10.1571 103.136 9.54035 103.581 9.03833C104.04 8.52195 104.592 8.1275 105.238 7.85497C105.898 7.58244 106.644 7.44618 107.475 7.44618C108.307 7.44618 109.046 7.58244 109.692 7.85497C110.351 8.1275 110.904 8.52195 111.348 9.03833C111.807 9.54035 112.159 10.1571 112.402 10.8887C112.646 11.6202 112.768 12.4378 112.768 13.3414C112.768 14.2451 112.646 15.0627 112.402 15.7942C112.159 16.5257 111.807 17.1497 111.348 17.666C110.904 18.1824 110.351 18.5769 109.692 18.8494C109.046 19.1219 108.307 19.2582 107.475 19.2582ZM107.475 16.7409C108.107 16.7409 108.594 16.5472 108.938 16.16C109.283 15.7727 109.455 15.2204 109.455 14.5033V12.2011C109.455 11.4839 109.283 10.9317 108.938 10.5444C108.594 10.1571 108.107 9.96349 107.475 9.96349C106.844 9.96349 106.357 10.1571 106.012 10.5444C105.668 10.9317 105.496 11.4839 105.496 12.2011V14.5033C105.496 15.2204 105.668 15.7727 106.012 16.16C106.357 16.5472 106.844 16.7409 107.475 16.7409ZM115.037 19V7.70437H118.221V9.61924H118.351C118.551 9.03115 118.903 8.52195 119.405 8.09164C119.907 7.66133 120.602 7.44618 121.492 7.44618C122.654 7.44618 123.529 7.83346 124.117 8.60802C124.719 9.38257 125.02 10.487 125.02 11.9214V19H121.836V12.1796C121.836 11.4481 121.721 10.9102 121.492 10.5659C121.262 10.2073 120.853 10.028 120.265 10.028C120.007 10.028 119.756 10.0639 119.512 10.1356C119.269 10.193 119.046 10.2934 118.845 10.4368C118.659 10.5803 118.508 10.7596 118.394 10.9747C118.279 11.1755 118.221 11.4122 118.221 11.6847V19H115.037ZM56.5526 41L55.4769 37.4284H50.4638L49.388 41H46.0746L51.0232 25.9822H55.0681L59.9521 41H56.5526ZM53.0026 28.9513H52.895L51.2383 34.6529H54.6808L53.0026 28.9513ZM61.8577 25.0785H65.042V31.5977H65.1496C65.3074 30.9666 65.666 30.4502 66.2254 30.0486C66.7991 29.647 67.4518 29.4462 68.1833 29.4462C69.6176 29.4462 70.7006 29.9482 71.4321 30.9523C72.1636 31.9563 72.5294 33.4194 72.5294 35.3414C72.5294 37.2635 72.1636 38.7337 71.4321 39.7521C70.7006 40.7562 69.6176 41.2582 68.1833 41.2582C67.8103 41.2582 67.4589 41.2008 67.129 41.0861C66.7991 40.9857 66.4979 40.8422 66.2254 40.6558C65.9672 40.4549 65.7449 40.2254 65.5584 39.9673C65.3719 39.6947 65.2357 39.4079 65.1496 39.1066H65.042V41H61.8577V25.0785ZM67.129 38.6763C67.7315 38.6763 68.2263 38.4683 68.6136 38.0524C69.0152 37.6221 69.216 37.0483 69.216 36.3311V34.3732C69.216 33.656 69.0152 33.0895 68.6136 32.6735C68.2263 32.2432 67.7315 32.028 67.129 32.028C66.5266 32.028 66.0246 32.1786 65.6229 32.4799C65.2357 32.7667 65.042 33.1684 65.042 33.6847V37.0196C65.042 37.536 65.2357 37.9448 65.6229 38.246C66.0246 38.5329 66.5266 38.6763 67.129 38.6763ZM81.8757 39.1066H81.7681C81.6821 39.4079 81.5458 39.6947 81.3593 39.9673C81.1729 40.2254 80.9434 40.4549 80.6708 40.6558C80.4127 40.8422 80.1114 40.9857 79.7672 41.0861C79.4373 41.2008 79.093 41.2582 78.7344 41.2582C77.3001 41.2582 76.2171 40.7562 75.4856 39.7521C74.7541 38.7337 74.3883 37.2635 74.3883 35.3414C74.3883 33.4194 74.7541 31.9563 75.4856 30.9523C76.2171 29.9482 77.3001 29.4462 78.7344 29.4462C79.466 29.4462 80.1114 29.647 80.6708 30.0486C81.2446 30.4502 81.6103 30.9666 81.7681 31.5977H81.8757V25.0785H85.06V41H81.8757V39.1066ZM79.7887 38.6763C80.3911 38.6763 80.886 38.5329 81.2733 38.246C81.6749 37.9448 81.8757 37.536 81.8757 37.0196V33.6847C81.8757 33.1684 81.6749 32.7667 81.2733 32.4799C80.886 32.1786 80.3911 32.028 79.7887 32.028C79.1863 32.028 78.6842 32.2432 78.2826 32.6735C77.8953 33.0895 77.7017 33.656 77.7017 34.3732V36.3311C77.7017 37.0483 77.8953 37.6221 78.2826 38.0524C78.6842 38.4683 79.1863 38.6763 79.7887 38.6763ZM94.7075 39.1066H94.5999C94.4995 39.3935 94.3633 39.666 94.1911 39.9242C94.0334 40.1824 93.8254 40.4119 93.5672 40.6127C93.309 40.8135 93.0006 40.9713 92.642 41.0861C92.2978 41.2008 91.8962 41.2582 91.4372 41.2582C90.2753 41.2582 89.3932 40.8781 88.7908 40.1179C88.2027 39.3433 87.9086 38.2388 87.9086 36.8045V29.7044H91.0929V36.5248C91.0929 37.2133 91.2148 37.744 91.4587 38.1169C91.7025 38.4899 92.1185 38.6763 92.7066 38.6763C92.9504 38.6763 93.1943 38.6405 93.4381 38.5687C93.6819 38.497 93.8971 38.3966 94.0836 38.2675C94.27 38.1241 94.4206 37.952 94.5354 37.7512C94.6501 37.5503 94.7075 37.3137 94.7075 37.0411V29.7044H97.8918V41H94.7075V39.1066ZM104.017 41C102.927 41 102.124 40.7346 101.608 40.2039C101.106 39.6732 100.855 38.9058 100.855 37.9018V25.0785H104.039V38.5257H105.459V41H104.017ZM111.198 41.2582C110.108 41.2582 109.19 41.0861 108.444 40.7418C107.698 40.3832 107.031 39.8812 106.443 39.2357L108.315 37.3424C108.716 37.787 109.161 38.1384 109.649 38.3966C110.136 38.6548 110.689 38.7839 111.305 38.7839C111.936 38.7839 112.374 38.6907 112.618 38.5042C112.862 38.3034 112.984 38.038 112.984 37.7081C112.984 37.1774 112.603 36.8619 111.843 36.7614L110.617 36.6108C108.078 36.2953 106.809 35.1334 106.809 33.1253C106.809 32.5803 106.909 32.0854 107.11 31.6408C107.325 31.1818 107.619 30.7945 107.992 30.4789C108.379 30.149 108.838 29.898 109.369 29.7259C109.914 29.5394 110.524 29.4462 111.198 29.4462C111.786 29.4462 112.302 29.4892 112.747 29.5753C113.206 29.647 113.608 29.7617 113.952 29.9195C114.31 30.063 114.633 30.2494 114.92 30.4789C115.221 30.6941 115.515 30.9379 115.802 31.2105L113.973 33.0823C113.615 32.7237 113.206 32.444 112.747 32.2432C112.302 32.028 111.843 31.9205 111.37 31.9205C110.825 31.9205 110.438 32.0065 110.208 32.1786C109.979 32.3508 109.864 32.5803 109.864 32.8671C109.864 33.1684 109.943 33.405 110.101 33.5772C110.273 33.7349 110.588 33.8497 111.047 33.9214L112.317 34.0935C114.798 34.4234 116.039 35.5566 116.039 37.493C116.039 38.038 115.924 38.5401 115.695 38.9991C115.465 39.4581 115.135 39.8597 114.705 40.2039C114.289 40.5338 113.78 40.792 113.177 40.9785C112.589 41.165 111.929 41.2582 111.198 41.2582ZM126.558 41C125.984 41 125.504 40.8207 125.116 40.4621C124.743 40.1035 124.507 39.623 124.406 39.0206H124.277C124.105 39.7521 123.725 40.3115 123.137 40.6988C122.549 41.0717 121.824 41.2582 120.964 41.2582C119.831 41.2582 118.963 40.957 118.36 40.3545C117.758 39.7521 117.457 38.956 117.457 37.9663C117.457 36.7758 117.887 35.8937 118.748 35.3199C119.623 34.7318 120.806 34.4378 122.298 34.4378H124.084V33.7278C124.084 33.1827 123.94 32.7524 123.653 32.4368C123.366 32.1069 122.886 31.942 122.212 31.942C121.581 31.942 121.079 32.0782 120.706 32.3508C120.333 32.6233 120.024 32.9317 119.78 33.2759L117.887 31.5977C118.346 30.9236 118.92 30.4 119.608 30.0271C120.311 29.6398 121.258 29.4462 122.448 29.4462C124.055 29.4462 125.26 29.7976 126.063 30.5004C126.866 31.2033 127.268 32.2289 127.268 33.5772V38.5257H128.322V41H126.558ZM122.147 39.0421C122.678 39.0421 123.13 38.9273 123.503 38.6978C123.89 38.4683 124.084 38.0954 124.084 37.579V36.2451H122.534C121.287 36.2451 120.663 36.6682 120.663 37.5145V37.8372C120.663 38.2532 120.792 38.5616 121.05 38.7624C121.308 38.9489 121.674 39.0421 122.147 39.0421ZM133.622 41C132.532 41 131.729 40.7346 131.212 40.2039C130.71 39.6732 130.459 38.9058 130.459 37.9018V25.0785H133.644V38.5257H135.064V41H133.622ZM145.321 41C144.747 41 144.267 40.8207 143.879 40.4621C143.506 40.1035 143.27 39.623 143.169 39.0206H143.04C142.868 39.7521 142.488 40.3115 141.9 40.6988C141.312 41.0717 140.587 41.2582 139.727 41.2582C138.594 41.2582 137.726 40.957 137.123 40.3545C136.521 39.7521 136.22 38.956 136.22 37.9663C136.22 36.7758 136.65 35.8937 137.511 35.3199C138.386 34.7318 139.569 34.4378 141.061 34.4378H142.847V33.7278C142.847 33.1827 142.703 32.7524 142.416 32.4368C142.129 32.1069 141.649 31.942 140.975 31.942C140.344 31.942 139.842 32.0782 139.469 32.3508C139.096 32.6233 138.787 32.9317 138.543 33.2759L136.65 31.5977C137.109 30.9236 137.683 30.4 138.371 30.0271C139.074 29.6398 140.021 29.4462 141.211 29.4462C142.818 29.4462 144.023 29.7976 144.826 30.5004C145.629 31.2033 146.031 32.2289 146.031 33.5772V38.5257H147.085V41H145.321ZM140.91 39.0421C141.441 39.0421 141.893 38.9273 142.266 38.6978C142.653 38.4683 142.847 38.0954 142.847 37.579V36.2451H141.297C140.05 36.2451 139.426 36.6682 139.426 37.5145V37.8372C139.426 38.2532 139.555 38.5616 139.813 38.7624C140.071 38.9489 140.437 39.0421 140.91 39.0421ZM149.222 41V29.7044H152.407V31.6192H152.536C152.737 31.0168 153.081 30.5076 153.569 30.0916C154.056 29.6613 154.723 29.4462 155.569 29.4462C156.344 29.4462 157.004 29.6398 157.549 30.0271C158.094 30.4144 158.488 30.981 158.732 31.7268H158.797C158.897 31.4113 159.048 31.1172 159.249 30.8447C159.464 30.5578 159.722 30.314 160.023 30.1132C160.324 29.9123 160.661 29.7546 161.034 29.6398C161.407 29.5107 161.809 29.4462 162.239 29.4462C163.329 29.4462 164.161 29.8335 164.735 30.608C165.323 31.3826 165.617 32.487 165.617 33.9214V41H162.433V34.1796C162.433 32.7452 161.917 32.028 160.884 32.028C160.41 32.028 159.98 32.1643 159.593 32.4368C159.206 32.7094 159.012 33.1253 159.012 33.6847V41H155.828V34.1796C155.828 32.7452 155.311 32.028 154.279 32.028C154.049 32.028 153.82 32.0639 153.59 32.1356C153.375 32.193 153.174 32.2934 152.988 32.4368C152.815 32.5803 152.672 32.7596 152.557 32.9747C152.457 33.1755 152.407 33.4122 152.407 33.6847V41H149.222Z" fill="white"/>
</svg>
